<svg xmlns="http://www.w3.org/2000/svg" xmlns:xlink="http://www.w3.org/1999/xlink" width="40" zoomAndPan="magnify" viewBox="0 0 30 30.000001" height="40" preserveAspectRatio="xMidYMid meet" version="1.0"><defs><clipPath id="5b9f399b51"><path d="M 0.484375 0 L 29.515625 0 L 29.515625 29.03125 L 0.484375 29.03125 Z M 0.484375 0 " clip-rule="nonzero"/></clipPath></defs><path fill="#414042" d="M 5.304688 11.273438 L 7.136719 13.105469 C 11.472656 8.773438 18.527344 8.773438 22.863281 13.105469 L 24.695312 11.273438 C 19.347656 5.929688 10.652344 5.929688 5.304688 11.273438 " fill-opacity="1" fill-rule="nonzero"/><path fill="#414042" d="M 8.21875 14.214844 L 10.050781 16.046875 C 12.78125 13.320312 17.21875 13.320312 19.949219 16.046875 L 21.78125 14.214844 C 18.042969 10.476562 11.957031 10.476562 8.21875 14.214844 " fill-opacity="1" fill-rule="nonzero"/><path fill="#414042" d="M 11.152344 17.148438 L 12.984375 18.980469 C 13.523438 18.441406 14.238281 18.144531 15 18.144531 C 15.761719 18.144531 16.476562 18.441406 17.015625 18.980469 L 18.847656 17.148438 C 17.820312 16.121094 16.453125 15.554688 15 15.554688 C 13.546875 15.554688 12.179688 16.121094 11.152344 17.148438 " fill-opacity="1" fill-rule="nonzero"/><path fill="#414042" d="M 15 19.183594 C 14.285156 19.183594 13.703125 19.761719 13.703125 20.476562 C 13.703125 21.195312 14.285156 21.773438 15 21.773438 C 15.714844 21.773438 16.296875 21.195312 16.296875 20.476562 C 16.296875 19.761719 15.714844 19.183594 15 19.183594 " fill-opacity="1" fill-rule="nonzero"/><g clip-path="url(#5b9f399b51)"><path fill="#ff3e33" d="M 15 29.03125 C 6.984375 29.03125 0.484375 22.53125 0.484375 14.515625 C 0.484375 6.5 6.984375 0 15 0 C 23.015625 0 29.515625 6.5 29.515625 14.515625 C 29.515625 22.53125 23.015625 29.03125 15 29.03125 M 5.5 6.480469 C 3.597656 8.726562 2.558594 11.539062 2.558594 14.515625 C 2.558594 17.839844 3.851562 20.964844 6.203125 23.3125 C 8.550781 25.664062 11.675781 26.957031 15 26.957031 C 17.976562 26.957031 20.789062 25.921875 23.035156 24.015625 L 17.507812 18.488281 L 18.847656 17.148438 C 17.820312 16.121094 16.453125 15.554688 15 15.554688 C 14.859375 15.554688 14.722656 15.558594 14.585938 15.570312 L 13.242188 14.222656 C 13.816406 14.074219 14.410156 14 15 14 C 15.34375 14 15.6875 14.027344 16.027344 14.074219 L 24.5 22.550781 C 26.402344 20.308594 27.441406 17.492188 27.441406 14.515625 C 27.441406 11.191406 26.148438 8.066406 23.796875 5.71875 C 21.449219 3.367188 18.324219 2.074219 15 2.074219 C 12.023438 2.074219 9.210938 3.113281 6.964844 5.015625 L 10.109375 8.160156 C 9.429688 8.417969 8.765625 8.734375 8.121094 9.105469 L 5.5 6.480469 M 11.207031 12.1875 L 10.035156 11.019531 C 10.722656 10.675781 11.4375 10.410156 12.167969 10.21875 L 13.480469 11.53125 C 12.703125 11.652344 11.9375 11.875 11.207031 12.1875 " fill-opacity="1" fill-rule="nonzero"/></g><path fill="#ff3e33" d="M 10.035156 11.019531 L 8.121094 9.105469 C 8.765625 8.734375 9.429688 8.417969 10.109375 8.160156 L 12.167969 10.21875 C 11.4375 10.410156 10.722656 10.675781 10.035156 11.019531 " fill-opacity="1" fill-rule="nonzero"/><path fill="#ff3e33" d="M 13.242188 14.222656 L 11.207031 12.1875 C 11.9375 11.875 12.703125 11.652344 13.480469 11.53125 L 16.027344 14.074219 C 15.6875 14.027344 15.34375 14 15 14 C 14.410156 14 13.816406 14.074219 13.242188 14.222656 " fill-opacity="1" fill-rule="nonzero"/><path fill="#ff3e33" d="M 17.507812 18.488281 L 14.585938 15.570312 C 14.722656 15.558594 14.859375 15.554688 15 15.554688 C 16.453125 15.554688 17.820312 16.121094 18.847656 17.148438 L 17.507812 18.488281 " fill-opacity="1" fill-rule="nonzero"/></svg>