<svg t="1718846176450" class="icon" viewBox="0 0 1024 1024" version="1.1" xmlns="http://www.w3.org/2000/svg" p-id="13392" id="mx_n_1718846176453" width="24" height="24"><path d="M279.779556 206.648889a57.571556 57.571556 0 1 1 57.571555 57.315555 56.888889 56.888889 0 0 1-57.571555-57.315555z m292.736 747.918222c0 0.967111-1.948444 1.948444-2.929778 1.948445l-97.578667-58.311112a3.555556 3.555556 0 0 1-0.995555-2.915555c8.803556-19.427556 97.592889-202.993778 87.836444-193.28a1243.022222 1243.022222 0 0 0-116.124444 139.861333l-26.339556 35.939556s-102.4-68.977778-134.656-111.701334c0-0.967111-0.995556-0.967111 0-1.934222 20.48-25.258667 129.777778-166.087111 129.777778-166.087111l-184.433778 110.734222h-2.929778c-8.789333-9.713778-70.257778-77.710222-88.789333-109.752889v-1.948444c17.564444-14.563556 117.091556-98.133333 117.091555-98.133333l-140.515555 49.536a3.598222 3.598222 0 0 1-2.929778-0.967111l-51.726222-97.137778a1.863111 1.863111 0 0 1 0.981333-2.915556c24.405333-4.835556 230.286222-47.573333 330.794667-116.622222 2.460444-1.692444 5.831111-1.28 7.808 0.981333l287.857778 286.535111c2.261333 1.962667 2.673778 5.319111 0.981333 7.779556a894.904889 894.904889 0 0 0-113.208889 328.291556l0.028445 0.099555z m199.111111-115.584a72.206222 72.206222 0 1 1-72.206223-71.879111 71.879111 71.879111 0 0 1 72.206223 71.879111z m55.608889-36.977778a38.855111 38.855111 0 1 1 38.926222-38.727111 39.054222 39.054222 0 0 1-39.025778 38.855111l0.113778-0.142222z m119.992888-630.371555L765.724444 353.251556c0 2.929778-0.995556 3.896889-0.995555 6.812444 41.002667 69.930667 40.021333 150.556444-19.498667 212.721778a4.736 4.736 0 0 1-6.826666 0L450.56 285.283556a4.664889 4.664889 0 0 1 0-6.798223c62.435556-59.249778 143.445333-59.249778 213.703111-19.427555 2.304 0.099556 4.622222-0.241778 6.826667-0.967111l182.471111-180.622223a66.432 66.432 0 1 1 93.667555 94.151112z" fill="#0e0e0e" p-id="13393"></path></svg>