<svg t="1718859435745" class="icon" viewBox="0 0 1024 1024" version="1.1" xmlns="http://www.w3.org/2000/svg" p-id="19230" id="mx_n_1718859435750" width="40" height="40"><path d="M510.805333 85.674667l10.688 0.213333a12.266667 12.266667 0 0 1 9.429334 19.328c-22.613333 31.850667-36.416 53.653333-41.450667 65.493333A276.778667 276.778667 0 0 0 839.04 537.664l11.733333-4.501333c15.68-6.528 35.306667-18.325333 58.901334-35.434667a16.981333 16.981333 0 0 1 26.965333 13.76c0 9.578667-0.298667 19.114667-0.938667 28.522667l-1.152 14.058666-0.853333 7.658667-1.706667 12.864c-30.506667 205.226667-207.466667 362.709333-421.184 362.709333-235.157333 0-425.813333-190.634667-425.813333-425.813333 0-209.813333 151.765333-384.170667 351.466667-419.349333l14.357333-2.261334 10.090667-1.322666 7.317333-0.810667a439.36 439.36 0 0 1 42.581333-2.069333z" fill="#0e0e0e" p-id="19231"></path></svg>