<svg xmlns="http://www.w3.org/2000/svg" xmlns:xlink="http://www.w3.org/1999/xlink" width="40" zoomAndPan="magnify" viewBox="0 0 30 30.000001" height="40" preserveAspectRatio="xMidYMid meet" version="1.0">
  <defs>
    <linearGradient id="gradient" x1="0%" y1="0%" x2="100%" y2="0%">
      <stop offset="0%" style="stop-color:#00bfa5;stop-opacity:1">
        <animate attributeName="stop-color" values="#00bfa5;#00e5ff;#1e88e5;#00bfa5" dur="4s" repeatCount="indefinite"/>
      </stop>
      <stop offset="100%" style="stop-color:#1e88e5;stop-opacity:1">
        <animate attributeName="stop-color" values="#1e88e5;#00bfa5;#00e5ff;#1e88e5" dur="4s" repeatCount="indefinite"/>
      </stop>
    </linearGradient>
  </defs>
  <g>
    <path fill="var(--icon-color)" d="M24 17.605469L24 23.15625C24 25.554688 22.042969 27.507812 19.644531 27.507812L4.839844 27.507812C2.441406 27.507812 0.484375 25.554688 0.484375 23.15625L0.484375 8.375C0.484375 5.976562 2.441406 4.023438 4.839844 4.023438L14.984375 4.023438L14.984375 7.105469L4.839844 7.105469C4.144531 7.105469 3.570312 7.679688 3.570312 8.375L3.570312 23.15625C3.570312 23.851562 4.144531 24.425781 4.839844 24.425781L19.644531 24.425781C20.339844 24.425781 20.914062 23.851562 20.914062 23.15625L20.914062 17.605469Z"/>
    <path fill="var(--icon-color)" d="M20.261719 1.46875L29.515625 8.855469L20.261719 16.242188L20.261719 11.796875C15.652344 12.125 11.800781 14.953125 10.789062 19.457031C9.785156 13.28125 14.089844 6.972656 20.261719 5.914062Z"/>
  </g>
</svg>