<svg t="1719193751421" class="icon" viewBox="0 0 1024 1024" version="1.1" xmlns="http://www.w3.org/2000/svg" p-id="9523" width="30" height="30"><path d="M128 1024H0v-128c16.1792-9.728 34.304-17.2544 48.128-29.6448 37.2736-33.28 72.7552-68.608 108.288-102.4-22.272-28.2624-41.4208-50.1248-57.7536-73.8816-14.3872-20.992-9.2672-43.7248 9.216-56.32 20.48-14.0288 41.6768-9.728 57.7024 11.776 4.4032 5.9392 8.7552 11.9296 14.1824 19.3536 7.424-8.3968 13.6704-15.36 19.5584-22.1696q247.1936-296.96 493.9776-593.92c15.36-18.432 32.1536-29.44 55.808-30.72 34.9184-2.7136 69.7856-4.9152 104.5504-7.8336 32.9216-2.9184 65.792-6.8096 98.6624-10.24h71.68v71.68c-1.7408 10.8032-4.1984 21.504-5.12 32.3584-4.8128 59.4432-7.936 119.0912-14.7968 178.2784a72.1408 72.1408 0 0 1-23.3472 42.6496c-144.128 121.4464-289.3312 241.664-434.2272 362.24-62.0544 51.6608-124.0576 103.424-187.4944 156.3648 5.632 4.7104 9.216 8.1408 13.1584 11.008 28.672 20.7872 34.2528 41.9328 16.6912 63.8464-15.9744 19.968-42.3424 19.5072-67.584-1.1776-18.944-15.36-37.7856-31.232-60.6208-50.1248-33.3312 35.0208-65.792 68.864-97.792 103.168-5.12 5.12-7.3216 12.8512-11.4176 19.0464-7.5776 11.6736-15.5648 23.1424-23.4496 34.6624zM732.16 158.72l-3.9424-3.2768L332.8 506.88l2.2016 5.4784h176.2816l-217.7536 348.9792 442.4704-442.2656h-176.9472zM61.44 0c54.0672 5.12 108.1344 13.6704 162.2528 14.1824 57.088 0.512 100.096 16.9472 133.5296 66.56 31.2832 46.336 70.912 87.04 107.8272 131.3792L237.4144 485.376c-12.0832-9.728-23.296-18.5856-34.2528-27.7504C150.6816 414.0544 97.28 371.456 46.5408 326.0928A85.0432 85.0432 0 0 1 20.48 277.0432C12.9536 213.6576 9.7792 149.7088 4.6592 86.016A222.1056 222.1056 0 0 0 0 61.44V0zM896 1024c-27.8528-55.2448-74.0864-94.72-117.4528-136.6528-6.0416-5.8368-12.288-11.52-18.7904-17.6128-24.1664 18.9952-46.08 39.7824-71.68 54.528-11.3152 6.5536-33.6896 6.5536-43.6736-0.7168s-13.3632-26.9824-15.0016-41.728c-0.768-6.7072 8.9088-15.36 15.36-21.76a170.24 170.24 0 0 1 21.9136-16.0768L568.32 761.8048l208.7936-174.08 66.816 78.3872c6.1952-8.2944 11.0592-15.0016 16.128-21.5552 15.36-19.712 37.0688-23.6544 55.8592-10.24a39.8336 39.8336 0 0 1 8.9088 56.8832c-17.2544 23.0912-36.352 44.8-59.9552 73.6256 36.864 34.4576 72.7552 69.5808 110.4896 102.4 13.9264 12.1344 32.3072 19.2 48.64 28.6208v128z" p-id="9524" fill="#e51b17"></path></svg>