<svg t="1718859494238" class="icon" viewBox="0 0 1024 1024" version="1.1" xmlns="http://www.w3.org/2000/svg" p-id="20392" width="40" height="40"><path d="M242.58 526.11c0 144.79 117.37 262.16 262.16 262.16S766.91 670.9 766.91 526.11 649.53 263.95 504.75 263.95 242.58 381.32 242.58 526.11zM512.35 217.22c-32.63 0-59.06-26.71-59.06-59.65 0-32.91 26.43-59.62 59.06-59.62s59.06 26.71 59.06 59.62c0 32.94-26.43 59.65-59.06 59.65z m196.16 71.75c-24.98-21.7-28.65-59.75-8.2-84.96 20.48-25.21 57.31-28.09 82.29-6.38s28.68 59.72 8.2 84.96c-20.45 25.21-57.28 28.08-82.29 6.38z m104.4 181.67c-5.67-33.23 15.14-64.79 46.48-70.54 31.34-5.74 61.38 16.6 67.02 49.82 5.64 33.26-15.17 64.82-46.51 70.54-31.34 5.74-61.35-16.6-66.99-49.79v-0.03z m-36.27 206.59c16.35-29.24 51.88-39.58 79.45-23.11s36.7 53.52 20.36 82.76c-16.28 29.24-51.85 39.58-79.42 23.11s-36.7-53.52-20.36-82.76h-0.03zM616.72 812.08c30.66-11.52 64.34 4.18 75.22 35.14 10.89 30.96-5.15 65.43-35.78 76.92-30.66 11.59-64.34-4.15-75.26-35.11-10.86-30.96 5.15-65.4 35.81-76.92v-0.03z m-208.74 0c30.66 11.55 46.66 45.99 35.78 76.95-10.89 30.96-44.57 46.69-75.19 35.11-30.66-11.49-46.7-45.96-35.78-76.92 10.86-30.96 44.54-46.66 75.19-35.11v-0.03zM248.03 677.23c16.28 29.24 7.19 66.29-20.36 82.76-27.6 16.47-63.17 6.13-79.48-23.11-16.28-29.24-7.19-66.29 20.39-82.76 27.57-16.46 63.13-6.12 79.45 23.11z m-36.27-206.59c-5.64 33.26-35.65 55.53-66.99 49.85-31.34-5.74-52.15-37.34-46.51-70.54 5.68-33.26 35.68-55.57 67.02-49.85 31.33 5.75 52.15 37.31 46.48 70.54z m104.43-181.67c-24.98 21.7-61.84 18.83-82.29-6.38-20.48-25.21-16.81-63.29 8.2-84.99 24.98-21.7 61.81-18.83 82.29 6.38 20.45 25.24 16.78 63.29-8.2 84.99z" fill="#FFBD00" p-id="20393"></path></svg>